<svg width="310" height="227" viewBox="0 0 310 227" fill="none" xmlns="http://www.w3.org/2000/svg">
<path d="M305.236 168.317H228.746C227.183 168.317 225.888 169.512 225.888 170.953V172.148H213.654V172.077H174.361C181.411 163.398 188.386 151.837 191.054 139.433C194.217 124.78 190.901 111.919 181.183 101.272C165.138 83.6667 163.194 77.4119 158.887 63.6373C157.858 60.2991 156.677 56.5743 155.152 52.1468C143.452 18.3076 99.0903 5.44659 97.2228 4.9195L91.7347 3.37337L89.6386 2.776L93.9833 8.89025C94.2882 9.31192 123.444 50.706 108.428 70.1732C107.78 71.0166 107.246 71.8599 106.636 72.6681C104.883 70.1029 103.397 67.2918 102.558 64.3401C94.4407 35.2447 54.0423 25.5463 52.3273 25.1246L45.6578 23.5785L49.164 29.0251C59.7972 45.5054 63.0748 66.0268 57.3962 80.0474C51.1077 94.1734 44.2858 101.447 38.226 107.878C30.5274 116.065 23.896 123.128 22.7146 140.417C21.9142 152.118 27.1355 163.117 33.6526 172.112H1.94373V179.316C1.94373 205.038 24.6583 225.981 52.556 225.981H163.003C188.615 225.981 209.766 208.341 213.12 185.571H225.85V186.801C225.85 188.241 227.145 189.436 228.708 189.436H305.198C306.761 189.436 308.056 188.241 308.056 186.801V170.918C308.056 169.477 306.761 168.282 305.198 168.282L305.236 168.317ZM207.937 179.351C207.937 202.192 187.776 220.745 163.042 220.745H52.5941C27.8215 220.745 7.69858 202.157 7.69858 179.351V177.383H207.937V179.351ZM42.5707 111.357C48.5924 104.961 56.0622 96.9845 62.7318 81.98C68.3723 68.1703 66.1999 48.8788 57.5105 32.2579C68.9059 36.1935 91.6204 46.2785 97.0322 65.6754C98.2518 70.0678 100.577 74.1088 103.321 77.6228C91.8872 96.2115 92.9162 111.567 95.5459 120.739C83.1977 128.786 69.4013 139.222 66.6954 152.856C65.4377 159.146 66.6954 165.858 70.0873 172.112H40.627C33.7288 163.363 27.631 152.364 28.4313 140.768C29.4984 125.272 34.9865 119.439 42.5707 111.357ZM110.219 77.2011C111.095 75.9009 112.048 74.5656 113.077 73.2303C126.531 55.8012 111.172 25.8977 103.092 12.615C116.012 17.7454 141.699 30.6063 149.703 53.7983C151.189 58.1556 152.37 61.8452 153.361 65.1483C157.744 79.204 159.955 86.267 176.762 104.715C185.299 114.097 188.195 125.447 185.413 138.449C182.555 151.556 174.323 163.855 167.005 172.112H143.262C150.274 161.922 154.771 149.869 154.771 139.363C154.771 116.522 135.411 96.4574 125.006 85.6697L119.289 79.7311L119.556 85.5642L119.632 87.1455C119.632 87.1455 119.632 87.8483 119.632 88.9728C119.632 89.781 119.556 90.8703 119.442 92.1002C118.908 97.5819 117.003 106.226 110.638 111.005C108.39 112.692 105.302 114.624 101.758 116.838C101.377 117.084 100.996 117.33 100.615 117.576C98.7854 109.6 98.5186 97.1251 107.208 82.0855C107.665 81.2772 108.161 80.469 108.694 79.6257C109.19 78.8175 109.723 78.0093 110.257 77.2011H110.219ZM125.006 93.6463C125.006 93.6463 125.121 93.7868 125.197 93.822C135.334 104.645 149.093 121.371 149.093 139.363C149.093 149.764 144.062 162.203 136.516 172.112H76.6425C72.717 166.209 71.1544 159.743 72.3359 153.805C74.5845 142.595 86.361 133.319 97.4515 125.974C98.2518 125.447 99.0522 124.92 99.8525 124.393C100.653 123.866 101.453 123.374 102.254 122.882C103.168 122.285 104.083 121.723 104.959 121.16C108.618 118.876 111.743 116.873 114.221 115.046C115.478 114.097 116.545 113.043 117.536 111.919C118.87 110.408 119.975 108.826 120.928 107.105C123.444 102.537 124.549 97.5116 125.044 93.6111L125.006 93.6463ZM216.703 177.454H225.888V180.335H216.703V177.454ZM302.378 184.2H231.604V173.588H302.378V184.2Z" fill="black"/>
<path d="M4.8783 173.588L213.654 172.183C216.703 180.335 208.814 199.064 208.814 199.064L198.219 212.769L190.939 218.215L172.265 225.243H43.4092L18.6747 213.928L3.69684 191.369L1.98181 179.351L4.91641 173.588H4.8783Z" fill="black" stroke="black" stroke-miterlimit="10"/>
<path d="M228.708 168.317H305.236L308.094 170.953V186.836H225.849V170.953L228.708 168.317Z" fill="black" stroke="black" stroke-miterlimit="10"/>
<path d="M233.358 171.937L300.586 172.253V182.83H233.358V171.937Z" fill="white" stroke="black" stroke-miterlimit="10"/>
<path d="M216.703 172.183L225.85 170.953V186.836L216.703 184.2V172.183Z" fill="white" stroke="black" stroke-miterlimit="10"/>
<path d="M45.6577 23.6136C77.0235 35.1042 83.7693 39.4615 83.7693 39.4615L97.5657 53.482L106.636 72.7033L99.5475 84.6155L94.2881 102.185L95.5839 120.739L79.4246 132.862L71.9166 141.225L66.6953 152.821L70.0872 172.077H33.6144L26.4113 159.673L22.905 147.62L23.6673 132.827L30.1462 117.611L43.4091 102.15L50.7646 92.3461L57.3198 80.0474L64.7135 66.1673L45.5814 23.5785L45.6577 23.6136Z" fill="url(#paint0_linear_7_101)" stroke="black" stroke-width="0.5" stroke-miterlimit="10"/>
<path d="M143.262 172.148L153.247 150.642L154.238 132.897L152.218 124.815L142.995 106.894L119.289 79.7663L119.404 92.1002L117.003 102.185L107.818 114.414L95.5839 120.739L79.4246 132.897L71.9547 141.26L66.6953 152.856V162.695L70.1254 172.112L143.262 172.148Z" fill="url(#paint1_linear_7_101)" stroke="black" stroke-width="0.5" stroke-miterlimit="10"/>
<path d="M91.7347 3.37337L125.921 18.167L146.882 36.9666L155.153 52.217L162.965 75.5144L173.484 92.3813L184.803 105.805L191.778 123.058L191.054 139.468L186.48 152.891L174.361 172.112L143.262 172.148L153.247 150.642L154.238 132.897L144.367 111.075L130.151 91.1163L119.289 79.7663L118.032 97.8982L110.6 110.97L95.584 120.739L94.2501 102.185L103.359 77.6579L111.934 61.4587L114.525 42.3077L108.161 21.6458L103.092 12.6502L91.7347 3.37337Z" fill="url(#paint2_linear_7_101)" stroke="black" stroke-width="0.5" stroke-miterlimit="10"/>
<defs>
<linearGradient id="paint0_linear_7_101" x1="22.9431" y1="97.8982" x2="106.636" y2="97.8982" gradientUnits="userSpaceOnUse">
<stop stop-color="#DD440C"/>
<stop offset="0.99" stop-color="#D47C00"/>
</linearGradient>
<linearGradient id="paint1_linear_7_101" x1="66.6953" y1="125.939" x2="154.238" y2="125.939" gradientUnits="userSpaceOnUse">
<stop stop-color="#DD440C"/>
<stop offset="0.99" stop-color="#D47C00"/>
</linearGradient>
<linearGradient id="paint2_linear_7_101" x1="91.7347" y1="87.778" x2="191.778" y2="87.778" gradientUnits="userSpaceOnUse">
<stop stop-color="#DD440C"/>
<stop offset="0.99" stop-color="#D47C00"/>
</linearGradient>
</defs>
</svg>
