<?xml version="1.0" encoding="UTF-8"?>
<svg id="Capa_1" data-name="Capa 1" xmlns="http://www.w3.org/2000/svg" xmlns:xlink="http://www.w3.org/1999/xlink" viewBox="0 0 81.34 64.6">
  <defs>
    <style>
      .cls-1 {
        fill: #fff;
      }

      .cls-1, .cls-2, .cls-3, .cls-4, .cls-5 {
        stroke: #000;
        stroke-miterlimit: 10;
      }

      .cls-3 {
        fill: url(#Degradado_sin_nombre_296-2);
      }

      .cls-3, .cls-4, .cls-5 {
        stroke-width: .5px;
      }

      .cls-4 {
        fill: url(#Degradado_sin_nombre_296-3);
      }

      .cls-5 {
        fill: url(#Degradado_sin_nombre_296);
      }
    </style>
    <linearGradient id="Degradado_sin_nombre_296" data-name="Degradado sin nombre 296" x1="6.02" y1="27.86" x2="27.98" y2="27.86" gradientUnits="userSpaceOnUse">
      <stop offset="0" stop-color="#dd440c"/>
      <stop offset=".99" stop-color="#d47c00"/>
    </linearGradient>
    <linearGradient id="Degradado_sin_nombre_296-2" data-name="Degradado sin nombre 296" x1="17.5" y1="35.84" x2="40.47" y2="35.84" xlink:href="#Degradado_sin_nombre_296"/>
    <linearGradient id="Degradado_sin_nombre_296-3" data-name="Degradado sin nombre 296" x1="24.07" y1="24.98" x2="50.32" y2="24.98" xlink:href="#Degradado_sin_nombre_296"/>
  </defs>
  <path d="M80.09,47.9h-20.07c-.41,0-.75.34-.75.75v.34h-3.21v-.02h-10.31c1.85-2.47,3.68-5.76,4.38-9.29.83-4.17-.04-7.83-2.59-10.86-4.21-5.01-4.72-6.79-5.85-10.71-.27-.95-.58-2.01-.98-3.27C37.64,5.21,26,1.55,25.51,1.4l-1.44-.44-.55-.17,1.14,1.74c.08.12,7.73,11.9,3.79,17.44-.17.24-.31.48-.47.71-.46-.73-.85-1.53-1.07-2.37-2.13-8.28-12.73-11.04-13.18-11.16l-1.75-.44.92,1.55c2.79,4.69,3.65,10.53,2.16,14.52-1.65,4.02-3.44,6.09-5.03,7.92-2.02,2.33-3.76,4.34-4.07,9.26-.21,3.33,1.16,6.46,2.87,9.02H.51s0,2.05,0,2.05c0,7.32,5.96,13.28,13.28,13.28h28.98c6.72,0,12.27-5.02,13.15-11.5h3.34v.35c0,.41.34.75.75.75h20.07c.41,0,.75-.34.75-.75v-4.52c0-.41-.34-.75-.75-.75h0ZM54.56,51.04c0,6.5-5.29,11.78-11.78,11.78H13.8c-6.5,0-11.78-5.29-11.78-11.78v-.56h52.54v.56ZM11.17,31.69c1.58-1.82,3.54-4.09,5.29-8.36,1.48-3.93.91-9.42-1.37-14.15,2.99,1.12,8.95,3.99,10.37,9.51.32,1.25.93,2.4,1.65,3.4-3,5.29-2.73,9.66-2.04,12.27-3.24,2.29-6.86,5.26-7.57,9.14-.33,1.79,0,3.7.89,5.48h-7.73c-1.81-2.49-3.41-5.62-3.2-8.92.28-4.41,1.72-6.07,3.71-8.37h0ZM28.92,21.97c.23-.37.48-.75.75-1.13,3.53-4.96-.5-13.47-2.62-17.25,3.39,1.46,10.13,5.12,12.23,11.72.39,1.24.7,2.29.96,3.23,1.15,4,1.73,6.01,6.14,11.26,2.24,2.67,3,5.9,2.27,9.6-.75,3.73-2.91,7.23-4.83,9.58h-6.23c1.84-2.9,3.02-6.33,3.02-9.32,0-6.5-5.08-12.21-7.81-15.28l-1.5-1.69.07,1.66.02.45s0,.2,0,.52c0,.23-.02.54-.05.89-.14,1.56-.64,4.02-2.31,5.38-.59.48-1.4,1.03-2.33,1.66-.1.07-.2.14-.3.21-.48-2.27-.55-5.82,1.73-10.1.12-.23.25-.46.39-.7.13-.23.27-.46.41-.69h0ZM32.8,26.65s.03.04.05.05c2.66,3.08,6.27,7.84,6.27,12.96,0,2.96-1.32,6.5-3.3,9.32h-15.71c-1.03-1.68-1.44-3.52-1.13-5.21.59-3.19,3.68-5.83,6.59-7.92.21-.15.42-.3.63-.45.21-.15.42-.29.63-.43.24-.17.48-.33.71-.49.96-.65,1.78-1.22,2.43-1.74.33-.27.61-.57.87-.89.35-.43.64-.88.89-1.37.66-1.3.95-2.73,1.08-3.84h0ZM56.86,50.5h2.41v.82h-2.41v-.82ZM79.34,52.42h-18.57v-3.02h18.57v3.02Z"/>
  <path class="cls-2" d="M1.28,49.4l54.78-.4c.8,2.32-1.27,7.65-1.27,7.65l-2.78,3.9-1.91,1.55-4.9,2H11.39l-6.49-3.22-3.93-6.42-.45-3.42.77-1.64Z"/>
  <polygon class="cls-2" points="60.01 47.9 80.09 47.9 80.84 48.65 80.84 53.17 59.26 53.17 59.26 48.65 60.01 47.9"/>
  <polygon class="cls-1" points="61.23 48.93 78.87 49.02 78.87 52.03 61.23 52.03 61.23 48.93"/>
  <polygon class="cls-1" points="56.86 49 59.26 48.65 59.26 53.17 56.86 52.42 56.86 49"/>
  <path class="cls-5" d="M11.98,6.72c8.23,3.27,10,4.51,10,4.51l3.62,3.99,2.38,5.47-1.86,3.39-1.38,5,.34,5.28-4.24,3.45-1.97,2.38-1.37,3.3.89,5.48h-9.57s-1.89-3.53-1.89-3.53l-.92-3.43.2-4.21,1.7-4.33,3.48-4.4,1.93-2.79,1.72-3.5,1.94-3.95-5.02-12.12Z"/>
  <polygon class="cls-3" points="37.59 48.99 40.21 42.87 40.47 37.82 39.94 35.52 37.52 30.42 31.3 22.7 31.33 26.21 30.7 29.08 28.29 32.56 25.08 34.36 20.84 37.82 18.88 40.2 17.5 43.5 17.5 46.3 18.4 48.98 37.59 48.99"/>
  <polygon class="cls-4" points="24.07 .96 33.04 5.17 38.54 10.52 40.71 14.86 42.76 21.49 45.52 26.29 48.49 30.11 50.32 35.02 50.13 39.69 48.93 43.51 45.75 48.98 37.59 48.99 40.21 42.87 40.47 37.82 37.88 31.61 34.15 25.93 31.3 22.7 30.97 27.86 29.02 31.58 25.08 34.36 24.73 29.08 27.12 22.1 29.37 17.49 30.05 12.04 28.38 6.16 27.05 3.6 24.07 .96"/>
</svg>